<?xml version="1.0" encoding="UTF-8" ?>
<!DOCTYPE svg PUBLIC "-//W3C//DTD SVG 1.1//EN" "http://www.w3.org/Graphics/SVG/1.1/DTD/svg11.dtd">
<svg width="325pt" height="358pt" viewBox="0 0 325 358" version="1.1" xmlns="http://www.w3.org/2000/svg">
<g id="#109345ff">
<path fill="#109345" opacity="1.00" d=" M 0.00 0.00 L 325.00 0.00 L 325.00 358.00 L 0.00 358.00 L 0.00 0.00 M 98.55 61.51 C 72.46 76.29 51.07 99.32 38.57 126.60 C 20.04 164.77 21.16 211.32 40.32 249.04 C 43.34 246.50 46.30 243.80 48.64 240.61 C 49.32 238.32 47.72 236.02 47.14 233.84 C 32.77 195.30 37.14 150.15 59.59 115.57 C 76.42 88.55 104.16 68.72 134.99 60.97 C 161.60 54.08 190.30 55.37 216.13 64.81 C 235.13 71.66 252.23 83.30 266.12 97.91 C 267.54 99.25 268.87 101.11 271.03 101.14 C 276.03 101.67 281.07 101.97 286.11 101.88 C 263.62 70.67 227.87 49.13 189.61 44.45 C 158.49 40.19 125.86 45.78 98.55 61.51 M 80.06 110.15 C 73.31 123.38 65.47 136.06 59.12 149.49 C 71.76 149.72 84.40 149.83 97.04 150.17 C 113.04 151.23 129.13 149.91 145.11 151.24 C 142.51 155.18 138.89 158.27 135.71 161.72 C 107.79 191.47 79.81 221.15 51.94 250.95 C 47.82 256.06 42.36 260.01 38.82 265.60 C 70.20 266.18 101.59 266.25 132.97 265.86 C 136.48 254.56 141.24 243.66 144.26 232.21 C 128.52 231.55 112.75 231.43 97.00 231.67 C 93.50 235.90 89.78 239.98 86.95 244.71 C 100.03 244.73 113.09 244.01 126.16 243.89 C 126.09 247.09 125.81 250.29 125.35 253.47 C 106.81 252.78 88.22 252.48 69.74 250.98 C 70.97 248.87 72.52 246.97 74.25 245.26 C 99.40 218.07 124.48 190.82 149.59 163.59 C 157.02 155.02 165.44 147.30 172.36 138.31 C 160.26 137.44 148.12 137.69 136.00 137.66 C 117.31 137.69 98.62 137.49 79.93 137.61 C 81.38 132.05 85.39 127.68 87.47 122.37 C 128.33 122.28 169.19 122.45 210.06 122.44 C 234.03 123.48 258.07 121.97 282.03 123.29 C 278.61 128.40 274.86 133.28 271.17 138.21 C 253.08 138.48 234.97 138.13 216.88 138.67 C 203.20 177.01 189.41 215.33 175.42 253.56 C 170.65 253.42 165.88 253.33 161.14 252.84 C 173.09 219.62 185.35 186.52 197.37 153.32 C 199.21 148.49 201.11 143.67 202.47 138.67 C 198.45 138.11 194.37 138.22 190.32 138.32 C 176.69 175.97 162.69 213.47 149.04 251.11 C 147.28 256.12 145.05 260.96 143.79 266.13 C 157.48 266.09 171.20 266.25 184.90 265.72 C 199.09 227.42 212.56 188.84 226.49 150.44 C 244.20 150.12 261.93 150.34 279.63 149.73 C 286.25 136.65 294.57 124.47 301.07 111.35 C 254.04 110.78 207.00 110.53 159.95 110.59 C 143.64 109.81 127.31 110.66 111.00 109.94 C 100.69 109.97 90.37 109.70 80.06 110.15 M 293.50 139.80 C 308.93 181.44 301.64 230.48 274.88 265.89 C 261.98 283.46 244.48 297.57 224.69 306.69 C 195.61 320.26 161.50 322.45 130.80 313.24 C 107.22 306.34 85.85 292.66 69.18 274.67 C 64.74 274.92 60.29 275.19 55.84 275.42 C 57.08 278.81 59.70 281.33 62.05 283.96 C 86.65 311.48 122.06 329.16 158.94 331.73 C 174.31 332.44 189.89 331.91 204.82 327.88 C 228.89 322.37 251.15 309.93 269.26 293.26 C 293.12 271.47 308.98 241.11 312.92 209.01 C 315.67 184.82 313.21 159.95 305.11 136.96 C 304.36 134.77 303.34 132.69 302.22 130.69 C 299.12 133.53 295.97 136.37 293.50 139.80 Z" />
</g>
<g id="#fcfdfdff">
<path fill="#fcfdfd" opacity="1.00" d=" M 98.55 61.51 C 125.86 45.78 158.49 40.19 189.61 44.45 C 227.87 49.13 263.62 70.67 286.11 101.88 C 281.07 101.97 276.03 101.67 271.03 101.14 C 268.87 101.11 267.54 99.25 266.12 97.91 C 252.23 83.30 235.13 71.66 216.13 64.81 C 190.30 55.37 161.60 54.08 134.99 60.97 C 104.16 68.72 76.42 88.55 59.59 115.57 C 37.14 150.15 32.77 195.30 47.14 233.84 C 47.72 236.02 49.32 238.32 48.64 240.61 C 46.30 243.80 43.34 246.50 40.32 249.04 C 21.16 211.32 20.04 164.77 38.57 126.60 C 51.07 99.32 72.46 76.29 98.55 61.51 Z" />
<path fill="#fcfdfd" opacity="1.00" d=" M 80.06 110.15 C 90.37 109.70 100.69 109.97 111.00 109.94 C 127.31 110.66 143.64 109.81 159.95 110.59 C 207.00 110.53 254.04 110.78 301.07 111.35 C 294.57 124.47 286.25 136.65 279.63 149.73 C 261.93 150.34 244.20 150.12 226.49 150.44 C 212.56 188.84 199.09 227.42 184.90 265.72 C 171.20 266.25 157.48 266.09 143.79 266.13 C 145.05 260.96 147.28 256.12 149.04 251.11 C 162.69 213.47 176.69 175.97 190.32 138.32 C 194.37 138.22 198.45 138.11 202.47 138.67 C 201.11 143.67 199.21 148.49 197.37 153.32 C 185.35 186.52 173.09 219.62 161.14 252.84 C 165.88 253.33 170.65 253.42 175.42 253.56 C 189.41 215.33 203.20 177.01 216.88 138.67 C 234.97 138.13 253.08 138.48 271.17 138.21 C 274.86 133.28 278.61 128.40 282.03 123.29 C 258.07 121.97 234.03 123.48 210.06 122.44 C 169.19 122.45 128.33 122.28 87.47 122.37 C 85.39 127.68 81.38 132.05 79.93 137.61 C 98.62 137.49 117.31 137.69 136.00 137.66 C 148.12 137.69 160.26 137.44 172.36 138.31 C 165.44 147.30 157.02 155.02 149.59 163.59 C 124.48 190.82 99.40 218.07 74.25 245.26 C 72.52 246.97 70.97 248.87 69.74 250.98 C 88.22 252.48 106.81 252.78 125.35 253.47 C 125.81 250.29 126.09 247.09 126.16 243.89 C 113.09 244.01 100.03 244.73 86.95 244.71 C 89.78 239.98 93.50 235.90 97.00 231.67 C 112.75 231.43 128.52 231.55 144.26 232.21 C 141.24 243.66 136.48 254.56 132.97 265.86 C 101.59 266.25 70.20 266.18 38.82 265.60 C 42.36 260.01 47.82 256.06 51.94 250.95 C 79.81 221.15 107.79 191.47 135.71 161.72 C 138.89 158.27 142.51 155.18 145.11 151.24 C 129.13 149.91 113.04 151.23 97.04 150.17 C 84.40 149.83 71.76 149.72 59.12 149.49 C 65.47 136.06 73.31 123.38 80.06 110.15 Z" />
<path fill="#fcfdfd" opacity="1.00" d=" M 293.50 139.80 C 295.97 136.37 299.12 133.53 302.22 130.69 C 303.34 132.69 304.36 134.77 305.11 136.96 C 313.21 159.95 315.67 184.82 312.92 209.01 C 308.98 241.11 293.12 271.47 269.26 293.26 C 251.15 309.93 228.89 322.37 204.82 327.88 C 189.89 331.91 174.31 332.44 158.94 331.73 C 122.06 329.16 86.65 311.48 62.05 283.96 C 59.70 281.33 57.08 278.81 55.84 275.42 C 60.29 275.19 64.74 274.92 69.18 274.67 C 85.85 292.66 107.22 306.34 130.80 313.24 C 161.50 322.45 195.61 320.26 224.69 306.69 C 244.48 297.57 261.98 283.46 274.88 265.89 C 301.64 230.48 308.93 181.44 293.50 139.80 Z" />
</g>
</svg>
